<mxfile host="app.diagrams.net" modified="2023-09-27T23:21:39.232Z" agent="Mozilla/5.0 (Windows NT 10.0; Win64; x64) AppleWebKit/537.36 (KHTML, like Gecko) Chrome/117.0.0.0 Safari/537.36" etag="n_43ThLZzFBcBfTY8yzR" version="21.8.2" type="device">
  <diagram id="C5RBs43oDa-KdzZeNtuy" name="Page-1">
    <mxGraphModel dx="1175" dy="374" grid="1" gridSize="10" guides="1" tooltips="1" connect="1" arrows="1" fold="1" page="1" pageScale="1" pageWidth="827" pageHeight="1169" math="0" shadow="0">
      <root>
        <mxCell id="WIyWlLk6GJQsqaUBKTNV-0" />
        <mxCell id="WIyWlLk6GJQsqaUBKTNV-1" parent="WIyWlLk6GJQsqaUBKTNV-0" />
        <mxCell id="Xce7NXWaf9P5bJgNcWLV-2" value="" style="edgeStyle=orthogonalEdgeStyle;rounded=0;orthogonalLoop=1;jettySize=auto;html=1;" edge="1" parent="WIyWlLk6GJQsqaUBKTNV-1" source="Xce7NXWaf9P5bJgNcWLV-0" target="Xce7NXWaf9P5bJgNcWLV-1">
          <mxGeometry relative="1" as="geometry" />
        </mxCell>
        <mxCell id="Xce7NXWaf9P5bJgNcWLV-0" value="Start" style="ellipse;whiteSpace=wrap;html=1;" vertex="1" parent="WIyWlLk6GJQsqaUBKTNV-1">
          <mxGeometry x="310" y="10" width="120" height="80" as="geometry" />
        </mxCell>
        <mxCell id="Xce7NXWaf9P5bJgNcWLV-4" value="" style="edgeStyle=orthogonalEdgeStyle;rounded=0;orthogonalLoop=1;jettySize=auto;html=1;" edge="1" parent="WIyWlLk6GJQsqaUBKTNV-1" source="Xce7NXWaf9P5bJgNcWLV-1" target="Xce7NXWaf9P5bJgNcWLV-3">
          <mxGeometry relative="1" as="geometry" />
        </mxCell>
        <mxCell id="Xce7NXWaf9P5bJgNcWLV-1" value="int num" style="shape=parallelogram;perimeter=parallelogramPerimeter;whiteSpace=wrap;html=1;fixedSize=1;" vertex="1" parent="WIyWlLk6GJQsqaUBKTNV-1">
          <mxGeometry x="310" y="110" width="120" height="60" as="geometry" />
        </mxCell>
        <mxCell id="Xce7NXWaf9P5bJgNcWLV-6" value="true" style="edgeStyle=orthogonalEdgeStyle;rounded=0;orthogonalLoop=1;jettySize=auto;html=1;entryX=1;entryY=0.5;entryDx=0;entryDy=0;" edge="1" parent="WIyWlLk6GJQsqaUBKTNV-1" source="Xce7NXWaf9P5bJgNcWLV-3" target="Xce7NXWaf9P5bJgNcWLV-5">
          <mxGeometry relative="1" as="geometry" />
        </mxCell>
        <mxCell id="Xce7NXWaf9P5bJgNcWLV-22" value="false" style="edgeStyle=orthogonalEdgeStyle;rounded=0;orthogonalLoop=1;jettySize=auto;html=1;entryX=0.5;entryY=0;entryDx=0;entryDy=0;" edge="1" parent="WIyWlLk6GJQsqaUBKTNV-1" source="Xce7NXWaf9P5bJgNcWLV-3" target="Xce7NXWaf9P5bJgNcWLV-21">
          <mxGeometry relative="1" as="geometry">
            <Array as="points">
              <mxPoint x="420" y="420" />
            </Array>
          </mxGeometry>
        </mxCell>
        <mxCell id="Xce7NXWaf9P5bJgNcWLV-3" value="True" style="rhombus;whiteSpace=wrap;html=1;" vertex="1" parent="WIyWlLk6GJQsqaUBKTNV-1">
          <mxGeometry x="320" y="190" width="100" height="100" as="geometry" />
        </mxCell>
        <mxCell id="Xce7NXWaf9P5bJgNcWLV-8" value="true" style="edgeStyle=orthogonalEdgeStyle;rounded=0;orthogonalLoop=1;jettySize=auto;html=1;entryX=0.5;entryY=0;entryDx=0;entryDy=0;" edge="1" parent="WIyWlLk6GJQsqaUBKTNV-1" source="Xce7NXWaf9P5bJgNcWLV-5" target="Xce7NXWaf9P5bJgNcWLV-7">
          <mxGeometry relative="1" as="geometry">
            <Array as="points">
              <mxPoint x="80" y="275" />
            </Array>
          </mxGeometry>
        </mxCell>
        <mxCell id="Xce7NXWaf9P5bJgNcWLV-10" value="false" style="edgeStyle=orthogonalEdgeStyle;rounded=0;orthogonalLoop=1;jettySize=auto;html=1;" edge="1" parent="WIyWlLk6GJQsqaUBKTNV-1" source="Xce7NXWaf9P5bJgNcWLV-5" target="Xce7NXWaf9P5bJgNcWLV-9">
          <mxGeometry relative="1" as="geometry" />
        </mxCell>
        <mxCell id="Xce7NXWaf9P5bJgNcWLV-5" value="num % 2 == 0 &amp;amp;&amp;amp; num / 2 &amp;gt;= 2" style="rhombus;whiteSpace=wrap;html=1;" vertex="1" parent="WIyWlLk6GJQsqaUBKTNV-1">
          <mxGeometry x="90" y="220" width="200" height="110" as="geometry" />
        </mxCell>
        <mxCell id="Xce7NXWaf9P5bJgNcWLV-18" value="" style="edgeStyle=orthogonalEdgeStyle;rounded=0;orthogonalLoop=1;jettySize=auto;html=1;" edge="1" parent="WIyWlLk6GJQsqaUBKTNV-1" source="Xce7NXWaf9P5bJgNcWLV-7" target="Xce7NXWaf9P5bJgNcWLV-17">
          <mxGeometry relative="1" as="geometry" />
        </mxCell>
        <mxCell id="Xce7NXWaf9P5bJgNcWLV-7" value="num /= 2" style="rounded=0;whiteSpace=wrap;html=1;" vertex="1" parent="WIyWlLk6GJQsqaUBKTNV-1">
          <mxGeometry x="20" y="350" width="120" height="60" as="geometry" />
        </mxCell>
        <mxCell id="Xce7NXWaf9P5bJgNcWLV-13" value="true" style="edgeStyle=orthogonalEdgeStyle;rounded=0;orthogonalLoop=1;jettySize=auto;html=1;" edge="1" parent="WIyWlLk6GJQsqaUBKTNV-1" source="Xce7NXWaf9P5bJgNcWLV-9" target="Xce7NXWaf9P5bJgNcWLV-12">
          <mxGeometry relative="1" as="geometry" />
        </mxCell>
        <mxCell id="Xce7NXWaf9P5bJgNcWLV-9" value="num % 2 == 1" style="rhombus;whiteSpace=wrap;html=1;" vertex="1" parent="WIyWlLk6GJQsqaUBKTNV-1">
          <mxGeometry x="180" y="350" width="100" height="80" as="geometry" />
        </mxCell>
        <mxCell id="Xce7NXWaf9P5bJgNcWLV-24" style="edgeStyle=orthogonalEdgeStyle;rounded=0;orthogonalLoop=1;jettySize=auto;html=1;entryX=0;entryY=0.5;entryDx=0;entryDy=0;" edge="1" parent="WIyWlLk6GJQsqaUBKTNV-1" source="Xce7NXWaf9P5bJgNcWLV-12" target="Xce7NXWaf9P5bJgNcWLV-21">
          <mxGeometry relative="1" as="geometry" />
        </mxCell>
        <mxCell id="Xce7NXWaf9P5bJgNcWLV-12" value="2 quvveti deyil" style="shape=document;whiteSpace=wrap;html=1;boundedLbl=1;" vertex="1" parent="WIyWlLk6GJQsqaUBKTNV-1">
          <mxGeometry x="170" y="470" width="120" height="80" as="geometry" />
        </mxCell>
        <mxCell id="Xce7NXWaf9P5bJgNcWLV-20" value="true" style="edgeStyle=orthogonalEdgeStyle;rounded=0;orthogonalLoop=1;jettySize=auto;html=1;" edge="1" parent="WIyWlLk6GJQsqaUBKTNV-1" source="Xce7NXWaf9P5bJgNcWLV-17" target="Xce7NXWaf9P5bJgNcWLV-19">
          <mxGeometry relative="1" as="geometry" />
        </mxCell>
        <mxCell id="Xce7NXWaf9P5bJgNcWLV-25" value="false" style="edgeStyle=orthogonalEdgeStyle;rounded=0;orthogonalLoop=1;jettySize=auto;html=1;exitX=0;exitY=0.5;exitDx=0;exitDy=0;" edge="1" parent="WIyWlLk6GJQsqaUBKTNV-1" source="Xce7NXWaf9P5bJgNcWLV-17">
          <mxGeometry relative="1" as="geometry">
            <mxPoint x="370" y="190" as="targetPoint" />
            <mxPoint x="-10" y="470" as="sourcePoint" />
            <Array as="points">
              <mxPoint x="-10" y="470" />
              <mxPoint x="-10" y="190" />
            </Array>
          </mxGeometry>
        </mxCell>
        <mxCell id="Xce7NXWaf9P5bJgNcWLV-17" value="num / 2 == 1" style="rhombus;whiteSpace=wrap;html=1;rounded=0;" vertex="1" parent="WIyWlLk6GJQsqaUBKTNV-1">
          <mxGeometry x="10" y="430" width="140" height="80" as="geometry" />
        </mxCell>
        <mxCell id="Xce7NXWaf9P5bJgNcWLV-23" style="edgeStyle=orthogonalEdgeStyle;rounded=0;orthogonalLoop=1;jettySize=auto;html=1;entryX=0.5;entryY=1;entryDx=0;entryDy=0;" edge="1" parent="WIyWlLk6GJQsqaUBKTNV-1" source="Xce7NXWaf9P5bJgNcWLV-19" target="Xce7NXWaf9P5bJgNcWLV-21">
          <mxGeometry relative="1" as="geometry" />
        </mxCell>
        <mxCell id="Xce7NXWaf9P5bJgNcWLV-19" value="2 quvvetidir" style="shape=document;whiteSpace=wrap;html=1;boundedLbl=1;rounded=0;" vertex="1" parent="WIyWlLk6GJQsqaUBKTNV-1">
          <mxGeometry x="20" y="530" width="120" height="80" as="geometry" />
        </mxCell>
        <mxCell id="Xce7NXWaf9P5bJgNcWLV-21" value="End" style="ellipse;whiteSpace=wrap;html=1;" vertex="1" parent="WIyWlLk6GJQsqaUBKTNV-1">
          <mxGeometry x="360" y="420" width="120" height="80" as="geometry" />
        </mxCell>
        <mxCell id="Xce7NXWaf9P5bJgNcWLV-26" value="Task1" style="text;html=1;align=center;verticalAlign=middle;resizable=0;points=[];autosize=1;strokeColor=none;fillColor=none;" vertex="1" parent="WIyWlLk6GJQsqaUBKTNV-1">
          <mxGeometry y="20" width="50" height="30" as="geometry" />
        </mxCell>
        <mxCell id="Xce7NXWaf9P5bJgNcWLV-27" value="" style="endArrow=none;html=1;rounded=0;" edge="1" parent="WIyWlLk6GJQsqaUBKTNV-1">
          <mxGeometry width="50" height="50" relative="1" as="geometry">
            <mxPoint x="-20" y="640" as="sourcePoint" />
            <mxPoint x="800" y="640" as="targetPoint" />
          </mxGeometry>
        </mxCell>
        <mxCell id="Xce7NXWaf9P5bJgNcWLV-30" value="" style="edgeStyle=orthogonalEdgeStyle;rounded=0;orthogonalLoop=1;jettySize=auto;html=1;" edge="1" parent="WIyWlLk6GJQsqaUBKTNV-1" source="Xce7NXWaf9P5bJgNcWLV-28" target="Xce7NXWaf9P5bJgNcWLV-29">
          <mxGeometry relative="1" as="geometry" />
        </mxCell>
        <mxCell id="Xce7NXWaf9P5bJgNcWLV-28" value="Start" style="ellipse;whiteSpace=wrap;html=1;" vertex="1" parent="WIyWlLk6GJQsqaUBKTNV-1">
          <mxGeometry x="210" y="690" width="80" height="60" as="geometry" />
        </mxCell>
        <mxCell id="Xce7NXWaf9P5bJgNcWLV-34" value="" style="edgeStyle=orthogonalEdgeStyle;rounded=0;orthogonalLoop=1;jettySize=auto;html=1;" edge="1" parent="WIyWlLk6GJQsqaUBKTNV-1" source="Xce7NXWaf9P5bJgNcWLV-29" target="Xce7NXWaf9P5bJgNcWLV-33">
          <mxGeometry relative="1" as="geometry" />
        </mxCell>
        <mxCell id="Xce7NXWaf9P5bJgNcWLV-29" value="int N;&lt;br&gt;int digit;&lt;br&gt;int count=1&lt;br&gt;int num;" style="shape=parallelogram;perimeter=parallelogramPerimeter;whiteSpace=wrap;html=1;fixedSize=1;" vertex="1" parent="WIyWlLk6GJQsqaUBKTNV-1">
          <mxGeometry x="190" y="770" width="120" height="60" as="geometry" />
        </mxCell>
        <mxCell id="Xce7NXWaf9P5bJgNcWLV-36" value="" style="edgeStyle=orthogonalEdgeStyle;rounded=0;orthogonalLoop=1;jettySize=auto;html=1;" edge="1" parent="WIyWlLk6GJQsqaUBKTNV-1" source="Xce7NXWaf9P5bJgNcWLV-33" target="Xce7NXWaf9P5bJgNcWLV-35">
          <mxGeometry relative="1" as="geometry" />
        </mxCell>
        <mxCell id="Xce7NXWaf9P5bJgNcWLV-33" value="int i = 10; i &lt;= N; i++" style="shape=hexagon;perimeter=hexagonPerimeter2;whiteSpace=wrap;html=1;fixedSize=1;" vertex="1" parent="WIyWlLk6GJQsqaUBKTNV-1">
          <mxGeometry x="170" y="850" width="160" height="80" as="geometry" />
        </mxCell>
        <mxCell id="Xce7NXWaf9P5bJgNcWLV-38" value="" style="edgeStyle=orthogonalEdgeStyle;rounded=0;orthogonalLoop=1;jettySize=auto;html=1;" edge="1" parent="WIyWlLk6GJQsqaUBKTNV-1" source="Xce7NXWaf9P5bJgNcWLV-35" target="Xce7NXWaf9P5bJgNcWLV-37">
          <mxGeometry relative="1" as="geometry" />
        </mxCell>
        <mxCell id="Xce7NXWaf9P5bJgNcWLV-35" value="num=i" style="rounded=0;whiteSpace=wrap;html=1;" vertex="1" parent="WIyWlLk6GJQsqaUBKTNV-1">
          <mxGeometry x="190" y="950" width="120" height="60" as="geometry" />
        </mxCell>
        <mxCell id="Xce7NXWaf9P5bJgNcWLV-40" value="true" style="edgeStyle=orthogonalEdgeStyle;rounded=0;orthogonalLoop=1;jettySize=auto;html=1;" edge="1" parent="WIyWlLk6GJQsqaUBKTNV-1" source="Xce7NXWaf9P5bJgNcWLV-37" target="Xce7NXWaf9P5bJgNcWLV-39">
          <mxGeometry relative="1" as="geometry">
            <Array as="points">
              <mxPoint x="250" y="1130" />
              <mxPoint x="150" y="1130" />
            </Array>
          </mxGeometry>
        </mxCell>
        <mxCell id="Xce7NXWaf9P5bJgNcWLV-53" value="" style="edgeStyle=orthogonalEdgeStyle;rounded=0;orthogonalLoop=1;jettySize=auto;html=1;" edge="1" parent="WIyWlLk6GJQsqaUBKTNV-1" source="Xce7NXWaf9P5bJgNcWLV-37" target="Xce7NXWaf9P5bJgNcWLV-51">
          <mxGeometry relative="1" as="geometry" />
        </mxCell>
        <mxCell id="Xce7NXWaf9P5bJgNcWLV-37" value="num/10&amp;gt;0" style="rhombus;whiteSpace=wrap;html=1;rounded=0;" vertex="1" parent="WIyWlLk6GJQsqaUBKTNV-1">
          <mxGeometry x="210" y="1030" width="80" height="80" as="geometry" />
        </mxCell>
        <mxCell id="Xce7NXWaf9P5bJgNcWLV-42" value="true" style="edgeStyle=orthogonalEdgeStyle;rounded=0;orthogonalLoop=1;jettySize=auto;html=1;" edge="1" parent="WIyWlLk6GJQsqaUBKTNV-1" source="Xce7NXWaf9P5bJgNcWLV-39" target="Xce7NXWaf9P5bJgNcWLV-41">
          <mxGeometry relative="1" as="geometry" />
        </mxCell>
        <mxCell id="Xce7NXWaf9P5bJgNcWLV-45" value="false" style="edgeStyle=orthogonalEdgeStyle;rounded=0;orthogonalLoop=1;jettySize=auto;html=1;" edge="1" parent="WIyWlLk6GJQsqaUBKTNV-1" source="Xce7NXWaf9P5bJgNcWLV-39" target="Xce7NXWaf9P5bJgNcWLV-44">
          <mxGeometry relative="1" as="geometry">
            <Array as="points">
              <mxPoint x="150" y="1230" />
              <mxPoint x="250" y="1230" />
            </Array>
          </mxGeometry>
        </mxCell>
        <mxCell id="Xce7NXWaf9P5bJgNcWLV-39" value="num%10==digit" style="rhombus;whiteSpace=wrap;html=1;rounded=0;" vertex="1" parent="WIyWlLk6GJQsqaUBKTNV-1">
          <mxGeometry x="90" y="1139" width="120" height="80" as="geometry" />
        </mxCell>
        <mxCell id="Xce7NXWaf9P5bJgNcWLV-46" style="edgeStyle=orthogonalEdgeStyle;rounded=0;orthogonalLoop=1;jettySize=auto;html=1;entryX=1;entryY=0.5;entryDx=0;entryDy=0;" edge="1" parent="WIyWlLk6GJQsqaUBKTNV-1" source="Xce7NXWaf9P5bJgNcWLV-41" target="Xce7NXWaf9P5bJgNcWLV-44">
          <mxGeometry relative="1" as="geometry">
            <Array as="points">
              <mxPoint x="360" y="1280" />
            </Array>
          </mxGeometry>
        </mxCell>
        <mxCell id="Xce7NXWaf9P5bJgNcWLV-41" value="count++" style="whiteSpace=wrap;html=1;rounded=0;" vertex="1" parent="WIyWlLk6GJQsqaUBKTNV-1">
          <mxGeometry x="290" y="1149" width="120" height="60" as="geometry" />
        </mxCell>
        <mxCell id="Xce7NXWaf9P5bJgNcWLV-48" style="edgeStyle=orthogonalEdgeStyle;rounded=0;orthogonalLoop=1;jettySize=auto;html=1;entryX=0.5;entryY=0;entryDx=0;entryDy=0;" edge="1" parent="WIyWlLk6GJQsqaUBKTNV-1" source="Xce7NXWaf9P5bJgNcWLV-44" target="Xce7NXWaf9P5bJgNcWLV-37">
          <mxGeometry relative="1" as="geometry">
            <Array as="points">
              <mxPoint x="20" y="1280" />
              <mxPoint x="20" y="1030" />
            </Array>
          </mxGeometry>
        </mxCell>
        <mxCell id="Xce7NXWaf9P5bJgNcWLV-44" value="num = (num - num % 10) / 10;" style="whiteSpace=wrap;html=1;rounded=0;" vertex="1" parent="WIyWlLk6GJQsqaUBKTNV-1">
          <mxGeometry x="160" y="1250" width="180" height="60" as="geometry" />
        </mxCell>
        <mxCell id="Xce7NXWaf9P5bJgNcWLV-55" value="" style="edgeStyle=orthogonalEdgeStyle;rounded=0;orthogonalLoop=1;jettySize=auto;html=1;" edge="1" parent="WIyWlLk6GJQsqaUBKTNV-1" source="Xce7NXWaf9P5bJgNcWLV-51" target="Xce7NXWaf9P5bJgNcWLV-54">
          <mxGeometry relative="1" as="geometry" />
        </mxCell>
        <mxCell id="Xce7NXWaf9P5bJgNcWLV-51" value="num==digit" style="rhombus;whiteSpace=wrap;html=1;" vertex="1" parent="WIyWlLk6GJQsqaUBKTNV-1">
          <mxGeometry x="330" y="1030" width="80" height="80" as="geometry" />
        </mxCell>
        <mxCell id="Xce7NXWaf9P5bJgNcWLV-57" style="edgeStyle=orthogonalEdgeStyle;rounded=0;orthogonalLoop=1;jettySize=auto;html=1;entryX=1;entryY=0.5;entryDx=0;entryDy=0;" edge="1" parent="WIyWlLk6GJQsqaUBKTNV-1" source="Xce7NXWaf9P5bJgNcWLV-54" target="Xce7NXWaf9P5bJgNcWLV-33">
          <mxGeometry relative="1" as="geometry">
            <Array as="points">
              <mxPoint x="500" y="890" />
            </Array>
          </mxGeometry>
        </mxCell>
        <mxCell id="Xce7NXWaf9P5bJgNcWLV-59" value="" style="edgeStyle=orthogonalEdgeStyle;rounded=0;orthogonalLoop=1;jettySize=auto;html=1;" edge="1" parent="WIyWlLk6GJQsqaUBKTNV-1" source="Xce7NXWaf9P5bJgNcWLV-54" target="Xce7NXWaf9P5bJgNcWLV-58">
          <mxGeometry relative="1" as="geometry" />
        </mxCell>
        <mxCell id="Xce7NXWaf9P5bJgNcWLV-54" value="count++" style="whiteSpace=wrap;html=1;" vertex="1" parent="WIyWlLk6GJQsqaUBKTNV-1">
          <mxGeometry x="440" y="1040" width="120" height="60" as="geometry" />
        </mxCell>
        <mxCell id="Xce7NXWaf9P5bJgNcWLV-61" value="" style="edgeStyle=orthogonalEdgeStyle;rounded=0;orthogonalLoop=1;jettySize=auto;html=1;" edge="1" parent="WIyWlLk6GJQsqaUBKTNV-1" source="Xce7NXWaf9P5bJgNcWLV-58" target="Xce7NXWaf9P5bJgNcWLV-60">
          <mxGeometry relative="1" as="geometry" />
        </mxCell>
        <mxCell id="Xce7NXWaf9P5bJgNcWLV-58" value="count" style="shape=document;whiteSpace=wrap;html=1;boundedLbl=1;" vertex="1" parent="WIyWlLk6GJQsqaUBKTNV-1">
          <mxGeometry x="440" y="1129" width="120" height="80" as="geometry" />
        </mxCell>
        <mxCell id="Xce7NXWaf9P5bJgNcWLV-60" value="End" style="ellipse;whiteSpace=wrap;html=1;" vertex="1" parent="WIyWlLk6GJQsqaUBKTNV-1">
          <mxGeometry x="460" y="1230" width="80" height="80" as="geometry" />
        </mxCell>
        <mxCell id="Xce7NXWaf9P5bJgNcWLV-62" value="" style="endArrow=none;html=1;rounded=0;" edge="1" parent="WIyWlLk6GJQsqaUBKTNV-1">
          <mxGeometry width="50" height="50" relative="1" as="geometry">
            <mxPoint x="-20" y="1360" as="sourcePoint" />
            <mxPoint x="800" y="1360" as="targetPoint" />
          </mxGeometry>
        </mxCell>
        <mxCell id="Xce7NXWaf9P5bJgNcWLV-63" value="Task2" style="text;html=1;align=center;verticalAlign=middle;resizable=0;points=[];autosize=1;strokeColor=none;fillColor=none;" vertex="1" parent="WIyWlLk6GJQsqaUBKTNV-1">
          <mxGeometry x="25" y="658" width="50" height="30" as="geometry" />
        </mxCell>
        <mxCell id="Xce7NXWaf9P5bJgNcWLV-65" value="Task3" style="text;html=1;align=center;verticalAlign=middle;resizable=0;points=[];autosize=1;strokeColor=none;fillColor=none;" vertex="1" parent="WIyWlLk6GJQsqaUBKTNV-1">
          <mxGeometry x="35" y="1368" width="50" height="30" as="geometry" />
        </mxCell>
        <mxCell id="Xce7NXWaf9P5bJgNcWLV-68" value="" style="edgeStyle=orthogonalEdgeStyle;rounded=0;orthogonalLoop=1;jettySize=auto;html=1;" edge="1" parent="WIyWlLk6GJQsqaUBKTNV-1" source="Xce7NXWaf9P5bJgNcWLV-66" target="Xce7NXWaf9P5bJgNcWLV-67">
          <mxGeometry relative="1" as="geometry" />
        </mxCell>
        <mxCell id="Xce7NXWaf9P5bJgNcWLV-66" value="Start" style="ellipse;whiteSpace=wrap;html=1;aspect=fixed;" vertex="1" parent="WIyWlLk6GJQsqaUBKTNV-1">
          <mxGeometry x="240" y="1398" width="80" height="80" as="geometry" />
        </mxCell>
        <mxCell id="Xce7NXWaf9P5bJgNcWLV-70" value="" style="edgeStyle=orthogonalEdgeStyle;rounded=0;orthogonalLoop=1;jettySize=auto;html=1;" edge="1" parent="WIyWlLk6GJQsqaUBKTNV-1" source="Xce7NXWaf9P5bJgNcWLV-67" target="Xce7NXWaf9P5bJgNcWLV-69">
          <mxGeometry relative="1" as="geometry" />
        </mxCell>
        <mxCell id="Xce7NXWaf9P5bJgNcWLV-67" value="int num;&lt;br&gt;int sum=0;" style="shape=parallelogram;perimeter=parallelogramPerimeter;whiteSpace=wrap;html=1;fixedSize=1;" vertex="1" parent="WIyWlLk6GJQsqaUBKTNV-1">
          <mxGeometry x="220" y="1500" width="120" height="60" as="geometry" />
        </mxCell>
        <mxCell id="Xce7NXWaf9P5bJgNcWLV-72" value="" style="edgeStyle=orthogonalEdgeStyle;rounded=0;orthogonalLoop=1;jettySize=auto;html=1;" edge="1" parent="WIyWlLk6GJQsqaUBKTNV-1" source="Xce7NXWaf9P5bJgNcWLV-69" target="Xce7NXWaf9P5bJgNcWLV-71">
          <mxGeometry relative="1" as="geometry" />
        </mxCell>
        <mxCell id="Xce7NXWaf9P5bJgNcWLV-77" value="" style="edgeStyle=orthogonalEdgeStyle;rounded=0;orthogonalLoop=1;jettySize=auto;html=1;" edge="1" parent="WIyWlLk6GJQsqaUBKTNV-1" source="Xce7NXWaf9P5bJgNcWLV-69" target="Xce7NXWaf9P5bJgNcWLV-76">
          <mxGeometry relative="1" as="geometry" />
        </mxCell>
        <mxCell id="Xce7NXWaf9P5bJgNcWLV-69" value="int i=1; i&amp;lt;num; i++" style="shape=hexagon;perimeter=hexagonPerimeter2;whiteSpace=wrap;html=1;fixedSize=1;" vertex="1" parent="WIyWlLk6GJQsqaUBKTNV-1">
          <mxGeometry x="190" y="1580" width="180" height="80" as="geometry" />
        </mxCell>
        <mxCell id="Xce7NXWaf9P5bJgNcWLV-74" value="true" style="edgeStyle=orthogonalEdgeStyle;rounded=0;orthogonalLoop=1;jettySize=auto;html=1;" edge="1" parent="WIyWlLk6GJQsqaUBKTNV-1" source="Xce7NXWaf9P5bJgNcWLV-71" target="Xce7NXWaf9P5bJgNcWLV-73">
          <mxGeometry relative="1" as="geometry" />
        </mxCell>
        <mxCell id="Xce7NXWaf9P5bJgNcWLV-71" value="num % i == 0" style="rhombus;whiteSpace=wrap;html=1;" vertex="1" parent="WIyWlLk6GJQsqaUBKTNV-1">
          <mxGeometry x="210" y="1680" width="140" height="80" as="geometry" />
        </mxCell>
        <mxCell id="Xce7NXWaf9P5bJgNcWLV-75" style="edgeStyle=orthogonalEdgeStyle;rounded=0;orthogonalLoop=1;jettySize=auto;html=1;entryX=0;entryY=0.5;entryDx=0;entryDy=0;" edge="1" parent="WIyWlLk6GJQsqaUBKTNV-1" source="Xce7NXWaf9P5bJgNcWLV-73" target="Xce7NXWaf9P5bJgNcWLV-69">
          <mxGeometry relative="1" as="geometry">
            <Array as="points">
              <mxPoint x="170" y="1830" />
              <mxPoint x="170" y="1620" />
            </Array>
          </mxGeometry>
        </mxCell>
        <mxCell id="Xce7NXWaf9P5bJgNcWLV-73" value="sum+=i;" style="whiteSpace=wrap;html=1;" vertex="1" parent="WIyWlLk6GJQsqaUBKTNV-1">
          <mxGeometry x="220" y="1800" width="120" height="60" as="geometry" />
        </mxCell>
        <mxCell id="Xce7NXWaf9P5bJgNcWLV-79" value="true" style="edgeStyle=orthogonalEdgeStyle;rounded=0;orthogonalLoop=1;jettySize=auto;html=1;" edge="1" parent="WIyWlLk6GJQsqaUBKTNV-1" source="Xce7NXWaf9P5bJgNcWLV-76" target="Xce7NXWaf9P5bJgNcWLV-78">
          <mxGeometry relative="1" as="geometry" />
        </mxCell>
        <mxCell id="Xce7NXWaf9P5bJgNcWLV-81" value="false" style="edgeStyle=orthogonalEdgeStyle;rounded=0;orthogonalLoop=1;jettySize=auto;html=1;" edge="1" parent="WIyWlLk6GJQsqaUBKTNV-1" source="Xce7NXWaf9P5bJgNcWLV-76" target="Xce7NXWaf9P5bJgNcWLV-80">
          <mxGeometry relative="1" as="geometry" />
        </mxCell>
        <mxCell id="Xce7NXWaf9P5bJgNcWLV-76" value="sum == num" style="rhombus;whiteSpace=wrap;html=1;" vertex="1" parent="WIyWlLk6GJQsqaUBKTNV-1">
          <mxGeometry x="450" y="1580" width="80" height="80" as="geometry" />
        </mxCell>
        <mxCell id="Xce7NXWaf9P5bJgNcWLV-83" style="edgeStyle=orthogonalEdgeStyle;rounded=0;orthogonalLoop=1;jettySize=auto;html=1;entryX=0;entryY=0.5;entryDx=0;entryDy=0;" edge="1" parent="WIyWlLk6GJQsqaUBKTNV-1" source="Xce7NXWaf9P5bJgNcWLV-78" target="Xce7NXWaf9P5bJgNcWLV-82">
          <mxGeometry relative="1" as="geometry">
            <Array as="points">
              <mxPoint x="490" y="1820" />
            </Array>
          </mxGeometry>
        </mxCell>
        <mxCell id="Xce7NXWaf9P5bJgNcWLV-78" value="true" style="shape=document;whiteSpace=wrap;html=1;boundedLbl=1;" vertex="1" parent="WIyWlLk6GJQsqaUBKTNV-1">
          <mxGeometry x="430" y="1690" width="120" height="80" as="geometry" />
        </mxCell>
        <mxCell id="Xce7NXWaf9P5bJgNcWLV-84" style="edgeStyle=orthogonalEdgeStyle;rounded=0;orthogonalLoop=1;jettySize=auto;html=1;entryX=0.5;entryY=0;entryDx=0;entryDy=0;" edge="1" parent="WIyWlLk6GJQsqaUBKTNV-1" source="Xce7NXWaf9P5bJgNcWLV-80" target="Xce7NXWaf9P5bJgNcWLV-82">
          <mxGeometry relative="1" as="geometry" />
        </mxCell>
        <mxCell id="Xce7NXWaf9P5bJgNcWLV-80" value="false" style="shape=document;whiteSpace=wrap;html=1;boundedLbl=1;" vertex="1" parent="WIyWlLk6GJQsqaUBKTNV-1">
          <mxGeometry x="590" y="1580" width="120" height="80" as="geometry" />
        </mxCell>
        <mxCell id="Xce7NXWaf9P5bJgNcWLV-82" value="End" style="ellipse;whiteSpace=wrap;html=1;" vertex="1" parent="WIyWlLk6GJQsqaUBKTNV-1">
          <mxGeometry x="590" y="1780" width="120" height="80" as="geometry" />
        </mxCell>
        <mxCell id="Xce7NXWaf9P5bJgNcWLV-86" value="" style="endArrow=none;html=1;rounded=0;" edge="1" parent="WIyWlLk6GJQsqaUBKTNV-1">
          <mxGeometry width="50" height="50" relative="1" as="geometry">
            <mxPoint x="-20" y="1920" as="sourcePoint" />
            <mxPoint x="800" y="1920" as="targetPoint" />
          </mxGeometry>
        </mxCell>
        <mxCell id="Xce7NXWaf9P5bJgNcWLV-87" value="Task 4" style="text;html=1;align=center;verticalAlign=middle;resizable=0;points=[];autosize=1;strokeColor=none;fillColor=none;" vertex="1" parent="WIyWlLk6GJQsqaUBKTNV-1">
          <mxGeometry y="1918" width="60" height="30" as="geometry" />
        </mxCell>
        <mxCell id="Xce7NXWaf9P5bJgNcWLV-90" value="" style="edgeStyle=orthogonalEdgeStyle;rounded=0;orthogonalLoop=1;jettySize=auto;html=1;" edge="1" parent="WIyWlLk6GJQsqaUBKTNV-1" source="Xce7NXWaf9P5bJgNcWLV-88" target="Xce7NXWaf9P5bJgNcWLV-89">
          <mxGeometry relative="1" as="geometry" />
        </mxCell>
        <mxCell id="Xce7NXWaf9P5bJgNcWLV-88" value="Start" style="ellipse;whiteSpace=wrap;html=1;" vertex="1" parent="WIyWlLk6GJQsqaUBKTNV-1">
          <mxGeometry x="220" y="1960" width="90" height="60" as="geometry" />
        </mxCell>
        <mxCell id="Xce7NXWaf9P5bJgNcWLV-92" value="" style="edgeStyle=orthogonalEdgeStyle;rounded=0;orthogonalLoop=1;jettySize=auto;html=1;" edge="1" parent="WIyWlLk6GJQsqaUBKTNV-1" source="Xce7NXWaf9P5bJgNcWLV-89" target="Xce7NXWaf9P5bJgNcWLV-91">
          <mxGeometry relative="1" as="geometry" />
        </mxCell>
        <mxCell id="Xce7NXWaf9P5bJgNcWLV-89" value="int N;&lt;br&gt;string binaryVersion=&quot;&quot;" style="shape=parallelogram;perimeter=parallelogramPerimeter;whiteSpace=wrap;html=1;fixedSize=1;" vertex="1" parent="WIyWlLk6GJQsqaUBKTNV-1">
          <mxGeometry x="170" y="2040" width="190" height="60" as="geometry" />
        </mxCell>
        <mxCell id="Xce7NXWaf9P5bJgNcWLV-94" value="true" style="edgeStyle=orthogonalEdgeStyle;rounded=0;orthogonalLoop=1;jettySize=auto;html=1;" edge="1" parent="WIyWlLk6GJQsqaUBKTNV-1" source="Xce7NXWaf9P5bJgNcWLV-91" target="Xce7NXWaf9P5bJgNcWLV-93">
          <mxGeometry relative="1" as="geometry" />
        </mxCell>
        <mxCell id="Xce7NXWaf9P5bJgNcWLV-97" value="" style="edgeStyle=orthogonalEdgeStyle;rounded=0;orthogonalLoop=1;jettySize=auto;html=1;" edge="1" parent="WIyWlLk6GJQsqaUBKTNV-1" source="Xce7NXWaf9P5bJgNcWLV-91" target="Xce7NXWaf9P5bJgNcWLV-96">
          <mxGeometry relative="1" as="geometry" />
        </mxCell>
        <mxCell id="Xce7NXWaf9P5bJgNcWLV-91" value="N/2!=0" style="rhombus;whiteSpace=wrap;html=1;" vertex="1" parent="WIyWlLk6GJQsqaUBKTNV-1">
          <mxGeometry x="225" y="2130" width="80" height="80" as="geometry" />
        </mxCell>
        <mxCell id="Xce7NXWaf9P5bJgNcWLV-95" style="edgeStyle=orthogonalEdgeStyle;rounded=0;orthogonalLoop=1;jettySize=auto;html=1;entryX=0;entryY=0.5;entryDx=0;entryDy=0;" edge="1" parent="WIyWlLk6GJQsqaUBKTNV-1" source="Xce7NXWaf9P5bJgNcWLV-93" target="Xce7NXWaf9P5bJgNcWLV-91">
          <mxGeometry relative="1" as="geometry">
            <Array as="points">
              <mxPoint x="130" y="2270" />
              <mxPoint x="130" y="2170" />
            </Array>
          </mxGeometry>
        </mxCell>
        <mxCell id="Xce7NXWaf9P5bJgNcWLV-93" value="binaryVersion = N % 2 + binaryVersion;&#xa;N = (N - N % 2) / 2;" style="whiteSpace=wrap;html=1;" vertex="1" parent="WIyWlLk6GJQsqaUBKTNV-1">
          <mxGeometry x="150" y="2240" width="230" height="60" as="geometry" />
        </mxCell>
        <mxCell id="Xce7NXWaf9P5bJgNcWLV-99" value="" style="edgeStyle=orthogonalEdgeStyle;rounded=0;orthogonalLoop=1;jettySize=auto;html=1;" edge="1" parent="WIyWlLk6GJQsqaUBKTNV-1" source="Xce7NXWaf9P5bJgNcWLV-96" target="Xce7NXWaf9P5bJgNcWLV-98">
          <mxGeometry relative="1" as="geometry" />
        </mxCell>
        <mxCell id="Xce7NXWaf9P5bJgNcWLV-96" value="&quot;1&quot;+binaryVersion" style="shape=document;whiteSpace=wrap;html=1;boundedLbl=1;" vertex="1" parent="WIyWlLk6GJQsqaUBKTNV-1">
          <mxGeometry x="400" y="2130" width="120" height="80" as="geometry" />
        </mxCell>
        <mxCell id="Xce7NXWaf9P5bJgNcWLV-98" value="End" style="ellipse;whiteSpace=wrap;html=1;" vertex="1" parent="WIyWlLk6GJQsqaUBKTNV-1">
          <mxGeometry x="425" y="2240" width="70" height="60" as="geometry" />
        </mxCell>
        <mxCell id="Xce7NXWaf9P5bJgNcWLV-100" value="" style="endArrow=none;html=1;rounded=0;" edge="1" parent="WIyWlLk6GJQsqaUBKTNV-1">
          <mxGeometry width="50" height="50" relative="1" as="geometry">
            <mxPoint x="-20" y="2350" as="sourcePoint" />
            <mxPoint x="800" y="2350" as="targetPoint" />
          </mxGeometry>
        </mxCell>
        <mxCell id="Xce7NXWaf9P5bJgNcWLV-101" value="Task5" style="text;html=1;align=center;verticalAlign=middle;resizable=0;points=[];autosize=1;strokeColor=none;fillColor=none;" vertex="1" parent="WIyWlLk6GJQsqaUBKTNV-1">
          <mxGeometry x="-5" y="2368" width="50" height="30" as="geometry" />
        </mxCell>
        <mxCell id="Xce7NXWaf9P5bJgNcWLV-104" value="" style="edgeStyle=orthogonalEdgeStyle;rounded=0;orthogonalLoop=1;jettySize=auto;html=1;" edge="1" parent="WIyWlLk6GJQsqaUBKTNV-1" source="Xce7NXWaf9P5bJgNcWLV-102" target="Xce7NXWaf9P5bJgNcWLV-103">
          <mxGeometry relative="1" as="geometry" />
        </mxCell>
        <mxCell id="Xce7NXWaf9P5bJgNcWLV-102" value="Start" style="ellipse;whiteSpace=wrap;html=1;" vertex="1" parent="WIyWlLk6GJQsqaUBKTNV-1">
          <mxGeometry x="230" y="2380" width="120" height="80" as="geometry" />
        </mxCell>
        <mxCell id="Xce7NXWaf9P5bJgNcWLV-106" value="" style="edgeStyle=orthogonalEdgeStyle;rounded=0;orthogonalLoop=1;jettySize=auto;html=1;" edge="1" parent="WIyWlLk6GJQsqaUBKTNV-1" source="Xce7NXWaf9P5bJgNcWLV-103" target="Xce7NXWaf9P5bJgNcWLV-105">
          <mxGeometry relative="1" as="geometry" />
        </mxCell>
        <mxCell id="Xce7NXWaf9P5bJgNcWLV-103" value="int N;&lt;br&gt;int less=N%10;&lt;br&gt;int greater=N%10" style="shape=parallelogram;perimeter=parallelogramPerimeter;whiteSpace=wrap;html=1;fixedSize=1;" vertex="1" parent="WIyWlLk6GJQsqaUBKTNV-1">
          <mxGeometry x="180" y="2490" width="220" height="90" as="geometry" />
        </mxCell>
        <mxCell id="Xce7NXWaf9P5bJgNcWLV-108" value="true" style="edgeStyle=orthogonalEdgeStyle;rounded=0;orthogonalLoop=1;jettySize=auto;html=1;" edge="1" parent="WIyWlLk6GJQsqaUBKTNV-1" source="Xce7NXWaf9P5bJgNcWLV-105" target="Xce7NXWaf9P5bJgNcWLV-107">
          <mxGeometry relative="1" as="geometry" />
        </mxCell>
        <mxCell id="Xce7NXWaf9P5bJgNcWLV-111" value="false" style="edgeStyle=orthogonalEdgeStyle;rounded=0;orthogonalLoop=1;jettySize=auto;html=1;" edge="1" parent="WIyWlLk6GJQsqaUBKTNV-1" source="Xce7NXWaf9P5bJgNcWLV-105" target="Xce7NXWaf9P5bJgNcWLV-110">
          <mxGeometry relative="1" as="geometry" />
        </mxCell>
        <mxCell id="Xce7NXWaf9P5bJgNcWLV-105" value="N&amp;gt;9" style="rhombus;whiteSpace=wrap;html=1;" vertex="1" parent="WIyWlLk6GJQsqaUBKTNV-1">
          <mxGeometry x="235" y="2620" width="110" height="100" as="geometry" />
        </mxCell>
        <mxCell id="Xce7NXWaf9P5bJgNcWLV-109" style="edgeStyle=orthogonalEdgeStyle;rounded=0;orthogonalLoop=1;jettySize=auto;html=1;entryX=0.5;entryY=0;entryDx=0;entryDy=0;" edge="1" parent="WIyWlLk6GJQsqaUBKTNV-1" source="Xce7NXWaf9P5bJgNcWLV-107" target="Xce7NXWaf9P5bJgNcWLV-105">
          <mxGeometry relative="1" as="geometry">
            <Array as="points">
              <mxPoint x="144" y="2810" />
              <mxPoint x="144" y="2620" />
            </Array>
          </mxGeometry>
        </mxCell>
        <mxCell id="Xce7NXWaf9P5bJgNcWLV-107" value="N-=N%10;&#xa;N /= 10;&#xa;if(N%10 &gt; greater) greater = N % 10;&#xa;if(N%10 &lt; less) less = N % 10;" style="whiteSpace=wrap;html=1;" vertex="1" parent="WIyWlLk6GJQsqaUBKTNV-1">
          <mxGeometry x="163.75" y="2750" width="252.5" height="110" as="geometry" />
        </mxCell>
        <mxCell id="Xce7NXWaf9P5bJgNcWLV-113" value="" style="edgeStyle=orthogonalEdgeStyle;rounded=0;orthogonalLoop=1;jettySize=auto;html=1;" edge="1" parent="WIyWlLk6GJQsqaUBKTNV-1" source="Xce7NXWaf9P5bJgNcWLV-110" target="Xce7NXWaf9P5bJgNcWLV-112">
          <mxGeometry relative="1" as="geometry" />
        </mxCell>
        <mxCell id="Xce7NXWaf9P5bJgNcWLV-110" value="less+greater" style="shape=document;whiteSpace=wrap;html=1;boundedLbl=1;" vertex="1" parent="WIyWlLk6GJQsqaUBKTNV-1">
          <mxGeometry x="420" y="2630" width="120" height="80" as="geometry" />
        </mxCell>
        <mxCell id="Xce7NXWaf9P5bJgNcWLV-112" value="End" style="ellipse;whiteSpace=wrap;html=1;" vertex="1" parent="WIyWlLk6GJQsqaUBKTNV-1">
          <mxGeometry x="445" y="2765" width="70" height="65" as="geometry" />
        </mxCell>
        <mxCell id="Xce7NXWaf9P5bJgNcWLV-114" value="" style="endArrow=none;html=1;rounded=0;" edge="1" parent="WIyWlLk6GJQsqaUBKTNV-1">
          <mxGeometry width="50" height="50" relative="1" as="geometry">
            <mxPoint x="80" y="2920" as="sourcePoint" />
            <mxPoint x="760" y="2920" as="targetPoint" />
          </mxGeometry>
        </mxCell>
        <mxCell id="Xce7NXWaf9P5bJgNcWLV-115" value="Task 6" style="text;html=1;align=center;verticalAlign=middle;resizable=0;points=[];autosize=1;strokeColor=none;fillColor=none;" vertex="1" parent="WIyWlLk6GJQsqaUBKTNV-1">
          <mxGeometry x="70" y="2928" width="60" height="30" as="geometry" />
        </mxCell>
        <mxCell id="Xce7NXWaf9P5bJgNcWLV-118" value="" style="edgeStyle=orthogonalEdgeStyle;rounded=0;orthogonalLoop=1;jettySize=auto;html=1;" edge="1" parent="WIyWlLk6GJQsqaUBKTNV-1" source="Xce7NXWaf9P5bJgNcWLV-116" target="Xce7NXWaf9P5bJgNcWLV-117">
          <mxGeometry relative="1" as="geometry" />
        </mxCell>
        <mxCell id="Xce7NXWaf9P5bJgNcWLV-116" value="Start" style="ellipse;whiteSpace=wrap;html=1;" vertex="1" parent="WIyWlLk6GJQsqaUBKTNV-1">
          <mxGeometry x="260" y="2940" width="120" height="80" as="geometry" />
        </mxCell>
        <mxCell id="Xce7NXWaf9P5bJgNcWLV-120" value="" style="edgeStyle=orthogonalEdgeStyle;rounded=0;orthogonalLoop=1;jettySize=auto;html=1;" edge="1" parent="WIyWlLk6GJQsqaUBKTNV-1" source="Xce7NXWaf9P5bJgNcWLV-117" target="Xce7NXWaf9P5bJgNcWLV-119">
          <mxGeometry relative="1" as="geometry" />
        </mxCell>
        <mxCell id="Xce7NXWaf9P5bJgNcWLV-117" value="int N" style="shape=parallelogram;perimeter=parallelogramPerimeter;whiteSpace=wrap;html=1;fixedSize=1;" vertex="1" parent="WIyWlLk6GJQsqaUBKTNV-1">
          <mxGeometry x="260" y="3040" width="120" height="60" as="geometry" />
        </mxCell>
        <mxCell id="Xce7NXWaf9P5bJgNcWLV-131" value="" style="edgeStyle=orthogonalEdgeStyle;rounded=0;orthogonalLoop=1;jettySize=auto;html=1;" edge="1" parent="WIyWlLk6GJQsqaUBKTNV-1" source="Xce7NXWaf9P5bJgNcWLV-119" target="Xce7NXWaf9P5bJgNcWLV-130">
          <mxGeometry relative="1" as="geometry" />
        </mxCell>
        <mxCell id="Xce7NXWaf9P5bJgNcWLV-119" value="int i = 0; i &amp;lt; N; i++" style="shape=hexagon;perimeter=hexagonPerimeter2;whiteSpace=wrap;html=1;fixedSize=1;" vertex="1" parent="WIyWlLk6GJQsqaUBKTNV-1">
          <mxGeometry x="260" y="3120" width="120" height="80" as="geometry" />
        </mxCell>
        <mxCell id="Xce7NXWaf9P5bJgNcWLV-124" value="" style="edgeStyle=orthogonalEdgeStyle;rounded=0;orthogonalLoop=1;jettySize=auto;html=1;" edge="1" parent="WIyWlLk6GJQsqaUBKTNV-1" source="Xce7NXWaf9P5bJgNcWLV-121" target="Xce7NXWaf9P5bJgNcWLV-123">
          <mxGeometry relative="1" as="geometry" />
        </mxCell>
        <mxCell id="Xce7NXWaf9P5bJgNcWLV-129" style="edgeStyle=orthogonalEdgeStyle;rounded=0;orthogonalLoop=1;jettySize=auto;html=1;entryX=0.5;entryY=0;entryDx=0;entryDy=0;" edge="1" parent="WIyWlLk6GJQsqaUBKTNV-1" source="Xce7NXWaf9P5bJgNcWLV-121" target="Xce7NXWaf9P5bJgNcWLV-119">
          <mxGeometry relative="1" as="geometry">
            <Array as="points">
              <mxPoint x="240" y="3280" />
              <mxPoint x="240" y="3120" />
              <mxPoint x="320" y="3120" />
            </Array>
          </mxGeometry>
        </mxCell>
        <mxCell id="Xce7NXWaf9P5bJgNcWLV-121" value="int j = 0; j &amp;lt; N; j++" style="shape=hexagon;perimeter=hexagonPerimeter2;whiteSpace=wrap;html=1;fixedSize=1;" vertex="1" parent="WIyWlLk6GJQsqaUBKTNV-1">
          <mxGeometry x="260" y="3270" width="120" height="80" as="geometry" />
        </mxCell>
        <mxCell id="Xce7NXWaf9P5bJgNcWLV-126" value="" style="edgeStyle=orthogonalEdgeStyle;rounded=0;orthogonalLoop=1;jettySize=auto;html=1;" edge="1" parent="WIyWlLk6GJQsqaUBKTNV-1" source="Xce7NXWaf9P5bJgNcWLV-123" target="Xce7NXWaf9P5bJgNcWLV-125">
          <mxGeometry relative="1" as="geometry" />
        </mxCell>
        <mxCell id="Xce7NXWaf9P5bJgNcWLV-123" value="i==j || j&amp;lt;i" style="rhombus;whiteSpace=wrap;html=1;" vertex="1" parent="WIyWlLk6GJQsqaUBKTNV-1">
          <mxGeometry x="270" y="3380" width="100" height="80" as="geometry" />
        </mxCell>
        <mxCell id="Xce7NXWaf9P5bJgNcWLV-128" style="edgeStyle=orthogonalEdgeStyle;rounded=0;orthogonalLoop=1;jettySize=auto;html=1;entryX=0.5;entryY=0;entryDx=0;entryDy=0;" edge="1" parent="WIyWlLk6GJQsqaUBKTNV-1" source="Xce7NXWaf9P5bJgNcWLV-125" target="Xce7NXWaf9P5bJgNcWLV-121">
          <mxGeometry relative="1" as="geometry">
            <mxPoint x="320" y="3240" as="targetPoint" />
            <Array as="points">
              <mxPoint x="470" y="3260" />
              <mxPoint x="320" y="3260" />
            </Array>
          </mxGeometry>
        </mxCell>
        <mxCell id="Xce7NXWaf9P5bJgNcWLV-125" value="*" style="shape=document;whiteSpace=wrap;html=1;boundedLbl=1;" vertex="1" parent="WIyWlLk6GJQsqaUBKTNV-1">
          <mxGeometry x="410" y="3380" width="120" height="80" as="geometry" />
        </mxCell>
        <mxCell id="Xce7NXWaf9P5bJgNcWLV-132" value="" style="edgeStyle=orthogonalEdgeStyle;rounded=0;orthogonalLoop=1;jettySize=auto;html=1;" edge="1" parent="WIyWlLk6GJQsqaUBKTNV-1" source="Xce7NXWaf9P5bJgNcWLV-130" target="Xce7NXWaf9P5bJgNcWLV-121">
          <mxGeometry relative="1" as="geometry" />
        </mxCell>
        <mxCell id="Xce7NXWaf9P5bJgNcWLV-130" value="Enter" style="shape=document;whiteSpace=wrap;html=1;boundedLbl=1;" vertex="1" parent="WIyWlLk6GJQsqaUBKTNV-1">
          <mxGeometry x="280" y="3210" width="80" height="40" as="geometry" />
        </mxCell>
      </root>
    </mxGraphModel>
  </diagram>
</mxfile>
